<?xml version="1.0" encoding="UTF-8" standalone="no"?>
<!-- Created with Inkscape (http://www.inkscape.org/) -->

<svg
   xmlns:dc="http://purl.org/dc/elements/1.1/"
   xmlns:cc="http://creativecommons.org/ns#"
   xmlns:rdf="http://www.w3.org/1999/02/22-rdf-syntax-ns#"
   xmlns:svg="http://www.w3.org/2000/svg"
   xmlns="http://www.w3.org/2000/svg"
   xmlns:sodipodi="http://sodipodi.sourceforge.net/DTD/sodipodi-0.dtd"
   xmlns:inkscape="http://www.inkscape.org/namespaces/inkscape"
   width="16px"
   height="16px"
   viewBox="0 0 16 16"
   version="1.1"
   id="SVGRoot"
   sodipodi:docname="spiral_icon.svg"
   inkscape:version="0.92.4 (5da689c313, 2019-01-14)">
  <defs
     id="defs33630" />
  <sodipodi:namedview
     id="base"
     pagecolor="#ffffff"
     bordercolor="#666666"
     borderopacity="1.0"
     inkscape:pageopacity="0.0"
     inkscape:pageshadow="2"
     inkscape:zoom="32"
     inkscape:cx="6.1549937"
     inkscape:cy="7.267767"
     inkscape:document-units="px"
     inkscape:current-layer="SVGRoot"
     showgrid="false"
     inkscape:window-width="1366"
     inkscape:window-height="705"
     inkscape:window-x="-8"
     inkscape:window-y="-8"
     inkscape:window-maximized="1"
     inkscape:grid-bbox="true"
     inkscape:object-paths="true"
     inkscape:snap-intersection-paths="true"
     inkscape:snap-smooth-nodes="true"
     inkscape:snap-midpoints="false"
     inkscape:snap-nodes="false" />
  <metadata
     id="metadata33633">
    <rdf:RDF>
      <cc:Work
         rdf:about="">
        <dc:format>image/svg+xml</dc:format>
        <dc:type
           rdf:resource="http://purl.org/dc/dcmitype/StillImage" />
        <dc:title></dc:title>
      </cc:Work>
    </rdf:RDF>
  </metadata>
  <path
     sodipodi:type="spiral"
     style="fill:none;fill-rule:evenodd;stroke:#000000"
     id="path33760"
     sodipodi:cx="8.25"
     sodipodi:cy="8"
     sodipodi:expansion="1"
     sodipodi:revolution="4.3821602"
     sodipodi:radius="6.7375464"
     sodipodi:argument="-28.181137"
     sodipodi:t0="0.090746596"
     d="M 8.7713099,7.6805357 C 9.1546269,7.966118 9.0760174,8.5400363 8.7703013,8.8490408 8.2931833,9.3312908 7.4987498,9.2011838 7.0732283,8.7211383 6.4871468,8.0599596 6.6719371,7.0343307 7.3280247,6.4954974 8.1707339,5.8033949 9.4314987,6.0441895 10.082234,6.8771877 10.881483,7.9002978 10.584047,9.3980847 9.5736493,10.159964 8.3707349,11.067009 6.6348732,10.712583 5.7623046,9.5244863 4.7470588,8.1421195 5.1586866,6.1675342 6.5246767,5.1845737 8.0862713,4.060857 10.300009,4.529822 11.393157,6.0738396 12.625533,7.8145102 12.099138,10.2677 10.376997,11.470888 8.4573584,12.81206 5.7645009,12.228169 4.451381,10.327834 3.0013105,8.2293058 3.642746,5.2966181 5.7213286,3.8736501 7.9986872,2.3146029 11.17133,3.0136197 12.704081,5.2704916 14.372166,7.7266343 13.61554,11.139329 11.180345,12.781812 8.545455,14.558985 4.8926292,13.744725 3.1404574,11.131182 1.2541574,8.3175735 2.1260671,4.4245534 4.9179806,2.5627265 7.7010192,0.70681795 11.527596,1.3623942 13.624996,3.937495" />
  <path
     style="fill:#660080;stroke-width:0.03125"
     d="M 7.6,14.315558 C 5.9295378,14.082131 4.4702043,13.266777 3.434962,11.988483 2.699952,11.080909 2.2027493,9.8781752 2.066613,8.6784449 2.0137913,8.2129427 2.0446619,7.2568418 2.1272324,6.800983 2.3736395,5.4406093 2.9835761,4.2308271 3.9133842,3.258231 6.1481266,0.92064955 9.7654594,0.50243786 12.613247,2.2524113 13.112018,2.5589073 13.568827,2.9296396 13.998714,3.376813 14.191921,3.5777895 14.35,3.7530444 14.35,3.7662683 c 0,0.013224 -0.168013,0.160107 -0.373362,0.3264068 C 13.661288,4.348058 13.598814,4.3870652 13.574559,4.343723 13.517881,4.2424454 12.923162,3.6649751 12.678125,3.4732895 11.601716,2.6312428 10.207548,2.1460785 8.8611234,2.1449894 6.4327622,2.1430253 4.3193369,3.5529006 3.4275756,5.769733 2.9799589,6.8824649 2.8808407,8.1978327 3.1617141,9.2979049 c 0.5585387,2.1875801 2.2982425,3.7356411 4.5538831,4.0522341 0.4740953,0.06654 1.2552737,0.04471 1.7125278,-0.04786 2.019973,-0.408951 3.514318,-1.899432 3.959519,-3.9492807 0.09332,-0.4296606 0.102033,-1.4798863 0.0158,-1.9041956 C 13.061352,5.7654543 11.886182,4.4360318 10.276926,3.9118918 9.7639297,3.7448073 9.4081913,3.6914078 8.81875,3.6930066 8.2627834,3.6945148 7.9559691,3.738911 7.4948616,3.8845748 6.2225916,4.2864846 5.1933353,5.2966799 4.7622214,6.566608 4.6143913,7.0020696 4.5660568,7.2766521 4.5469642,7.7894562 c -0.019702,0.5291581 0.029157,0.9263565 0.1681706,1.3671706 0.5090258,1.6141202 2.0021405,2.7060872 3.7010843,2.7067302 1.6278299,6.16e-4 2.9874159,-1.036004 3.4245439,-2.6110543 0.07936,-0.2859481 0.08625,-0.3554972 0.08652,-0.8731947 2.5e-4,-0.4909571 -0.0089,-0.596284 -0.07197,-0.828125 C 11.76606,7.2228571 11.552356,6.7641568 11.369081,6.5073202 11.165479,6.2219974 10.713387,5.8078062 10.429633,5.6466305 8.6761781,4.6506474 6.6221125,5.436904 6.1442372,7.2869971 6.0720553,7.5664496 6.0653844,7.640483 6.0782125,8.019733 c 0.015959,0.47182 0.07363,0.7074669 0.2609141,1.066121 0.2340968,0.4483009 0.5843553,0.7833034 1.0577484,1.011677 0.3423606,0.165161 0.6413178,0.234702 1.0089825,0.234702 0.9352797,0 1.7311565,-0.6025068 1.9607735,-1.484375 0.05781,-0.2220375 0.06556,-0.6559728 0.01561,-0.8740162 C 10.248438,7.3897624 9.7450406,6.8917462 9.1620844,6.7667246 8.9307881,6.7171202 8.5601425,6.7468143 8.334375,6.8330355 8.0722062,6.9331584 7.7627191,7.2430002 7.66407,7.504108 7.4352116,8.1098587 7.7234956,8.7098702 8.2931137,8.8133505 8.6427528,8.876868 8.976125,8.5899896 8.9009125,8.2903184 8.8861956,8.2316821 8.9403791,8.1393096 9.1677666,7.8353827 L 9.4530869,7.4540221 9.5596241,7.5571902 C 9.7363534,7.7283299 9.8582494,8.0149412 9.8746266,8.2978471 9.8993781,8.725419 9.7504003,9.090189 9.4297922,9.3870152 8.8820113,9.8941637 8.0734162,9.9266337 7.4027853,9.4684121 6.6000928,8.9199568 6.3814541,7.8053755 6.8947834,6.878713 7.0744694,6.554344 7.4511825,6.1947137 7.7875,6.0264784 8.1922725,5.8239999 8.5018766,5.7577777 8.9429613,5.779333 c 0.4301668,0.021022 0.64154,0.074073 1.0164137,0.2551032 1.116463,0.5391515 1.673921,1.8272472 1.339303,3.0946718 -0.07137,0.2703269 -0.324037,0.779396 -0.505326,1.018122 -0.430476,0.566864 -1.0716195,0.95745 -1.8208414,1.109261 -0.3467772,0.07027 -1.0335222,0.0469 -1.37845,-0.04691 C 6.3222831,10.863712 5.3913291,9.8610909 5.1472497,8.5744093 5.0934292,8.2906899 5.085291,7.6601446 5.131755,7.3738637 5.2211378,6.8231427 5.4881878,6.1859462 5.8114662,5.752033 6.7943253,4.432813 8.4971966,3.9163736 10.115625,4.4466865 c 0.602826,0.197529 1.138724,0.5325869 1.611016,1.00725 0.621003,0.6241219 0.995018,1.3519781 1.139871,2.2182628 0.07951,0.4755159 0.0514,1.2740003 -0.06047,1.7176687 -0.224735,0.891287 -0.632092,1.595398 -1.283026,2.217694 -0.600951,0.574518 -1.35975,0.965678 -2.235516,1.152409 -0.3749834,0.07996 -1.3665622,0.07954 -1.7644913,-7.43e-4 C 5.5521803,12.361622 4.0851033,10.915137 3.6557245,8.9462255 3.5960541,8.6726077 3.5865677,8.5348024 3.5865677,7.941608 c 0,-0.5969728 0.00932,-0.7307062 0.070798,-1.015625 C 4.1795761,4.5057284 6.1569997,2.8223253 8.6,2.7182631 c 2.520591,-0.1073673 4.789538,1.4667307 5.575098,3.8677646 0.18409,0.562666 0.24396,0.9350494 0.260752,1.6218541 0.01702,0.6959975 -0.02569,1.0898494 -0.18258,1.6837328 -0.446177,1.6889534 -1.557923,3.0594664 -3.106395,3.8294354 -0.679743,0.337998 -1.2756837,0.518336 -2.0148053,0.6097 C 8.7763125,14.374726 7.9659112,14.36669 7.6,14.315558 Z"
     id="path33762"
     inkscape:connector-curvature="0"
     inkscape:transform-center-x="-2.25"
     inkscape:transform-center-y="-1.46875" />
</svg>
